<svg width="375" height="58" viewBox="0 0 375 58" fill="none" xmlns="http://www.w3.org/2000/svg">
<path d="M0 53.9974L7.8125 45.0924C15.625 36.3208 31.25 18.3107 46.875 11.3068C62.5 4.30288 78.125 7.63808 93.75 18.4108C109.375 28.9834 125 46.9935 140.625 45.0924C156.25 43.3248 171.875 21.9795 187.5 18.4108C203.125 14.9755 218.75 28.9834 234.375 29.0834C250 28.9834 265.625 14.9755 281.25 18.4108C296.875 21.9795 312.5 43.3248 328.125 52.2298C343.75 61.0013 359.375 57.6661 367.188 55.7651L375 53.9974V0.634155H367.188C359.375 0.634155 343.75 0.634155 328.125 0.634155C312.5 0.634155 296.875 0.634155 281.25 0.634155C265.625 0.634155 250 0.634155 234.375 0.634155C218.75 0.634155 203.125 0.634155 187.5 0.634155C171.875 0.634155 156.25 0.634155 140.625 0.634155C125 0.634155 109.375 0.634155 93.75 0.634155C78.125 0.634155 62.5 0.634155 46.875 0.634155C31.25 0.634155 15.625 0.634155 7.8125 0.634155H0V53.9974Z" fill="#00CBA9"/>
</svg>
